<?xml version="1.0" standalone="yes"?>

<svg version="1.1" viewBox="0.0 0.0 409.0 179.0" fill="none" stroke="none" stroke-linecap="square" stroke-miterlimit="10" xmlns="http://www.w3.org/2000/svg" xmlns:xlink="http://www.w3.org/1999/xlink"><clipPath id="p.0"><path d="m0 0l409.0 0l0 179.0l-409.0 0l0 -179.0z" clip-rule="nonzero"></path></clipPath><g clip-path="url(#p.0)"><path fill="#000000" fill-opacity="0.0" d="m0 0l409.11285 0l0 179.6063l-409.11285 0z" fill-rule="nonzero"></path><path fill="#000000" fill-opacity="0.0" d="m-25.506561 67.41076l460.12598 0l0 48.0l-460.12598 0z" fill-rule="nonzero"></path><path fill="#000000" d="m9.868927 133.69202l19.1875 -91.625l18.8125 0l-19.125 91.625l-18.875 0zm36.25 0l19.1875 -91.625l31.3125 0q10.1875 0 14.25 0.625q6.75 0.9375 11.4375 3.75q4.6875 2.8125 7.125 7.5q2.4375 4.6875 2.4375 10.374996q0 7.625 -4.25 13.21875q-4.25 5.59375 -13.125 8.46875q7.0625 1.9375 11.03125 6.90625q3.96875 4.96875 3.96875 11.21875q0 8.25 -4.6875 15.65625q-4.6875 7.40625 -12.9375 10.656258q-8.25 3.25 -22.5625 3.25l-43.1875 0zm30.25 -54.625008l14.375 0q9.6875 0 13.9375 -1.375q4.25 -1.375 6.375 -4.5q2.125 -3.125 2.125 -6.6875q0 -3.4999962 -2.0 -5.749996q-2.0 -2.25 -5.6875 -3.0q-2.0625 -0.375 -9.9375 -0.375l-14.625 0l-4.5625 21.687496zm-8.3125 39.875l18.1875 0q11.4375 0 15.34375 -1.46875q3.90625 -1.46875 6.25 -4.84375q2.34375 -3.375 2.34375 -7.125q0 -4.5625 -3.375 -7.53125q-3.375 -2.96875 -11.25 -2.96875l-22.5 0l-5.0 23.9375zm70.625 14.750008l19.125 -91.625l67.9375 0l-3.1875 15.3125l-49.0625 0l-4.375 20.812496l47.4375 0l-3.1875 15.3125l-47.4375 0l-5.75 24.875l53.3125 0l-3.25 15.312508l-71.5625 0zm85.1875 0l19.125 -91.625l18.875 0l-8.125 38.937496l42.375 -38.937496l25.25 0l-41.125 35.937496l30.1875 55.687508l-21.3125 0l-22.625 -43.625008l-17.8125 15.5625l-5.875 28.062508l-18.9375 0zm152.625 -20.250008l-36.3125 0l-11.0 20.250008l-19.375 0l51.8125 -91.625l20.9375 0l14.875 91.625l-17.875 0l-3.0625 -20.250008zm-2.3125 -15.25l-5.3125 -36.874996l-22.125 36.874996l27.4375 0z" fill-rule="nonzero"></path><path fill="#ff0000" d="m5.650101 6.3871393l397.85828 0l0 16.944881l-397.85828 0z" fill-rule="nonzero"></path><path stroke="#ff0000" stroke-width="2.0" stroke-linejoin="round" stroke-linecap="butt" d="m5.650101 6.3871393l397.85828 0l0 16.944881l-397.85828 0z" fill-rule="nonzero"></path><path fill="#ff0000" d="m5.650101 156.27428l397.85828 0l0 16.944885l-397.85828 0z" fill-rule="nonzero"></path><path stroke="#ff0000" stroke-width="2.0" stroke-linejoin="round" stroke-linecap="butt" d="m5.650101 156.27428l397.85828 0l0 16.944885l-397.85828 0z" fill-rule="nonzero"></path></g></svg>

